/* XPM */
static char * black_wall_xpm[] = {
"64 64 64 1",
" 	c #050505",
".	c #070707",
"+	c #060606",
"@	c #030303",
"#	c #0B0B0B",
"$	c #0F0F0F",
"%	c #121212",
"&	c #141414",
"*	c #111111",
"=	c #0E0E0E",
"-	c #151515",
";	c #131313",
">	c #0C0C0C",
",	c #1A1A1A",
"'	c #0D0D0D",
")	c #080808",
"!	c #0A0A0A",
"~	c #181818",
"{	c #1B1B1B",
"]	c #000000",
"^	c #010101",
"/	c #040404",
"(	c #020202",
"_	c #090909",
":	c #101010",
"<	c #161616",
"[	c #191919",
"}	c #171717",
"|	c #2A2A2A",
"1	c #2D2D2D",
"2	c #2C2C2C",
"3	c #272727",
"4	c #323232",
"5	c #333333",
"6	c #303030",
"7	c #282828",
"8	c #252525",
"9	c #202020",
"0	c #1F1F1F",
"a	c #2F2F2F",
"b	c #313131",
"c	c #2E2E2E",
"d	c #232323",
"e	c #262626",
"f	c #292929",
"g	c #1E1E1E",
"h	c #2B2B2B",
"i	c #242424",
"j	c #212121",
"k	c #343434",
"l	c #353535",
"m	c #222222",
"n	c #1D1D1D",
"o	c #1C1C1C",
"p	c #363636",
"q	c #373737",
"r	c #3C3C3C",
"s	c #383838",
"t	c #3B3B3B",
"u	c #3E3E3E",
"v	c #404040",
"w	c #3A3A3A",
"x	c #3F3F3F",
"y	c #393939",
"   .+@@@#$%&*===*---&%%;%**$$**%&&&*=>>$&,,$>''%%;;%*;;*'==)!&~{",
"]]]]]]]]^^@ @@@@/@@@(@@//@@@@@@/@@@@(((((@@/(^(//@@@@@@@^^^^^^(!",
"^]]^^^^]@/@ @@@@/@@@(@@//@@@@@@/@@@@(((((@@/(^(//@@@@@@@^^^^^]]@",
" ^^@^..!/(((@  .___)))))_==!+++]^((@@@@@@@@_   .!>>!_!!>!)) @]]^",
" ^^ .''=.  !#==::==#_:::'**#_%%>_!!>=$$==''-%::*&--;$**<[}}*_]]]",
";  {|1123334455562278990,[[$%33|1aab4555444bc2221227d''-0eefe ]/",
";  {|1123334455562278990,[[$%33|1aab4555444bc2221227d''-0eefe!@/",
":  gc446h22455556223igg0,&&+)jjfabb5klllkkk5bcccchhig&&~088|7$(%",
")@@~3|||e33664454aa2|ee|3jj$#99e|hh1aaacacc46666a||m{<<[gdd8g ^!",
"!@@<822ch22|1665544aceehhee*.--<f||2ccc1c11h|hh2heen<::-9||ad ^+",
"!@@<822ch22|1665544aceehhee*.--<f||2ccc1c11h|hh2heen<::-9||ad ^+",
"+^^!-99eiddj877||ff38mm33dd:/==#f||2caaac11ee33||88o&$$;n33hn(^(",
")((_&mm|733jdee3388m9jjidjj: ==!o000jmmmj9900jjeemm~***&[jj8,(^(",
"=^^/!''@/__!{&&{~;;~n<<-%::=''''%::*;<<;#///+//(.&&~;**-%<<~.]]@",
"=^^/!''@/__!{&&{~;;~n<<-%::=''''%::*;<<;#///+//(.&&~;**-%<<~.]]@",
">^^)%**/ !!.&##**==$;''=*&&<<--&====>__+ //^(___@>>&#===&}},;^]/",
";@@{5ppc655hh}}&;;;;<%%}0332c112lqqp6ffef11+_nnegee68::*|66b7(^(",
";@@nlrrpk6662~~-<--#_&&~933cb555qqqq411ff||.>{{e8eei{&&%bppql ^@",
";@@nlrrpk6662~~-<--#_&&~933cb555qqqq411ff||.>{{e8eei{&&%bppql ^@",
"#^^*f554a773h||4s44~={{n9ii716644bb6bbb13jj^(@@'{}})@  /eaakp+( ",
".]]#8cc4p44e|ccptkk&!22hh22cbkkpaccc4ll4|dd)!((_g[[+.__>3bbpa ^ ",
"@]])[--}meehh||73ii)+ee3f||hhhhheee7|22hf338g::*,::(/33e|hhh0/^_",
"(]].[--}meehh||73ii)+ee3f||hhhhheee7|22hf338g::*,::(/33e|hhh0/^_",
"(]]#,::%3kkmmiij9gg/ {{gdee38mm0n99mm0098||20--&&>>)!ii78ff|<(^_",
"^]]@-__*=$$)/((/)!!./+++.__>*}}{;}}n[<<=:::=$$$$'##_.@@(^##$>@^@",
"(]]^$--{%;;#)+++)!!!!   )>>%<}}}:::&*;;$*::$$:::$''#_>>).==_.(^(",
"(]]^$--{%;;#)+++)!!!!   )>>%<}}}:::&*;;$*::$$:::$''#_>>).==_.(^(",
"(]]^>ee|dmm7388mjdd71441733e9<<',,,0giide884555k5446akkf388:!/^/",
"@]]]+jj7bcc11hhem881luup1hhh8[[$:<<m8||7222a6bb44bb6avvbaff'. ^ ",
"@]]]^!!;bcc66ccf877bsll2djj8e99[(>>08ff8f||2caabbbb6accjj99_!+(_",
"+^^]^!!;bcc66ccf877bsll2djj8e99[(>>08ff8f||2caabbbb6accjj99_!+(_",
".^^ =((!46612ffe8331bww4f88eedd0(##oihhf222fh11a666aa11m000::.(#",
"_@@;j'':444|38883ffff||7e8888iid //!*jj87iimdee7f|||fcci{,,*'/^ ",
".@@,|--;|||i9gg98eei9jji3ff7eiid#^^^@,,ieggmdeef|hhhh||d<}}&$@^ ",
".@@,|--;|||i9gg98eei9jji3ff7eiid#^^^@,,ieggmdeef|hhhh||d<}}&$@^ ",
".^^'-~~-'>>-&&&&-<<<---&%$$! ((^((((((((+__'*,,[,&&--&&-%==::(]@",
" ^^.!&&<},,&-<<-%***%::::::=#!!.#!!)+++)#'':>'''---}&;;&%$$:$^](",
"*++,8kkkl44%<,,~%==:;ff|1cc66aac4ccfeii8377i[;;;dff27ccb6cc1m+(!",
"*++,8kkkl44%<,,~%==:;ff|1cc66aac4ccfeii8377i[;;;dff27ccb6cc1g//'",
"'++,ewwwrpp=}ggg};;}occ64llqqqqqpbb|eiidm99d,<<~7cc5abbll55b%(($",
".//*,44svxx><jji900dfccab445544bbhhij99n}%%--oo0f||aa116bcc1:](#",
"'//~eqqqskk><jj7777hc55klpppk554l6622223o%%*,ff2622b544lkbb6;((;",
"'//~eqqqskk><jj7777hc55klpppk554l6622223o%%*,ff2622b544lkbb6g  ;",
"'@@~322d-==$<003hhh||ddie333e88i8mmm8339:@@=~33|hee|2337eddd<@@$",
"&@@,eeeg:>>*<gg8|||ed00jd88eeee89009effj=(($}iie7dd377778jjd~//;",
"/^^'%''#>>>).--['--&<**%;&&;%**:;''+@// @(('};;>;--*;;;o[>>))^^ ",
"/^^'%''#>>>).--['--&<**%;&&;%**:;''+@// @(('};;>;--*;;;o[>>))^^ ",
"@^^!$..@@((!);;<!%%:;::*;&&-&;;%=>>_ @@@ ..><&&:<}}*%##&<**;$((.",
"!@@n444kpllheff8<[[%&}},088habb4644b233eh667baaff88o}$$;;%%[&@@>",
"!//0ppppp553mddg&~~:;~~omff6lyyw5556h33ef22clppb177g-{{[;**[*((>",
"!//0ppppp553mddg&~~:;~~omff6lyyw5556h33ef22clppb177g-{{[;**[*^^>",
"$  jlbbch331|ff89dd}{99mi33f|||fb228j9990nn0e22hfffi{,,}&<<9;(('",
"'//05bbbbaa2hff8mmm$:77f|hhh|773k118d88eijjde111fhh|9##$}mmh,@@$",
"'@@,277fhhh0mmmd8ii''ddie333e88i}&&*:**&<}}3e||79ddi[  '{ff1~@@>",
"'@@,277fhhh0mmmd8ii''ddie333e88i}&&*:**&<}}3e||79ddi[  '{ff1~@@>",
")((-d99d37787338e99@@ffff338jggo*;;--&&~0eeimeeindd7g>>;0ff7*((!",
".^^)&$$*{$$[<%%')//@@@@((@@#:::$n88p4||i&[[%;**:'__+ == &nn}$((.",
".^^!->>#-##>>##_+///@__.)''&~[[}gmm1799,=**::$$=#)) @$$!-~~! ^^+",
".^^!->>#-##>>##_+///@__.)''&~[[}gmm1799,=**::$$=#)) @$$!-~~! ^^+",
"'@@<m;;=[%%|1665k5566bb28ddjg[[&$==-;::*=**bbbb6chh73||1rtt9!((.",
"@]]^/^^^@@/=$%%&---;%<<;$>>!)  //@@@(^^^(((:****:$$''''$;**@]]](",
"]]]]]]]]]]]]]]]]]]]]]]]]]]]]]]]]]]]]]]]]]]]]]]]]]]]]]]]]]]]]]]]^",
"]]]]]]]]]]]]]]]]]]]]]]]]]]]]]]]]]]]]]]]]]]]]]]]]]]]]]]]]]]]]]]]^",
"^]]]]]]]@)=$:****::$==='>==*;;;%'##!)// $::=$$$::$$==))_!>>/(^] "};
