/* XPM */
static char * enemy_queen_xpm[] = {
"64 64 23 1",
" 	c None",
".	c #000000",
"+	c #228A9A",
"@	c #1B6E7B",
"#	c #57001B",
"$	c #2656AA",
"%	c #2F69D0",
"&	c #426113",
"*	c #638A28",
"=	c #FF384F",
"-	c #9C9C9C",
";	c #F89313",
">	c #FFFFFF",
",	c #FFBB00",
"'	c #FF007F",
")	c #E36002",
"!	c #FFE51B",
"~	c #E11E19",
"{	c #B00000",
"]	c #AE1700",
"^	c #3362B7",
"/	c #303030",
"(	c #FF5100",
"                            .....                               ",
"                            .....                               ",
"                          ..+++@@...                            ",
"                          ..@@#@@#++..                          ",
"                          ..@@#@@#++..                          ",
"                      ......@@###+++..                          ",
"                      ......@@###+++..                          ",
"                    ..$%%%%%@@@@@@..                            ",
"                  ..%%%%%%%%%%@@@&**..                          ",
"                  ..%%%%%%%%%%@@@&**..                          ",
"                 .$$%%%%%%$$%%%%%...                            ",
"                 .%%%%%$$===%%%%%$..                ----        ",
"                 .%%%%%$$===%%%%%$..                ----        ",
"         .........$$%%===...%%%%%%..               -            ",
"         .........$$%%===...%%%%%%..               -            ",
"       ..;>>>,,...$$$$''''==$$%%%%..               ---          ",
"       ..)>>))).. ..$$>>>'%%%%%$$$..                -----       ",
"       ..)>>))).. ..$$>>>'%%%%%$$$..                -----       ",
"       ..,>>!,,.. ..$$$''%%%%%$$$.                      ---     ",
"       ..,>>!,,.. ..$$$''%%%%%$$$.                      ---     ",
"       ..)>>)))..   ..~~~$%%$$${{.                         -    ",
"       ..;!!!;;.. ..]]~==$$$$$]..                        --     ",
"       ..;!!!;;.. ..]]~==$$$$$]..                        --     ",
"         .!!...   ..~~~~~$$$]]~..          .                    ",
"         .!!...   ..~~~~~$$$]]~..          .                    ",
"         .^^^.......~~~~~${{]]=~~.     ....@.............       ",
"         .^^^@@@@@==]]~~~$]]]]===.    .@@^^/////////>>>>(..     ",
"         .^^^@@@@@==]]~~~$]]]]===.    .@@^^/////////>>>>(..     ",
"          ..,..@@@==]]]]]]]]]]===.....^^^^^@.............       ",
"          ..,..@@@==]]]]]]]]]]===.....^^^^^@.............       ",
"          ..!.......@@@@@@@@..~===@@@@@.....                    ",
"          ..,..   ..@@@@@@@@...==@@@@@.                         ",
"          ..,..   ..@@@@@@@@...==@@@@@.                         ",
"          ..),,...##]]]]]]]]...~~@@@..                          ",
"            .,,.. ..]]]~~~~~]]......     ...                    ",
"            .,,.. ..]]]~~~~~]]......     ...                    ",
"            .,,...]]]]]]]~~~~~~...     ..~~~..                  ",
"            .,,...]]]]]]]~~~~~~...     ..~~~..                  ",
"            .!!...]]]]]]]]~~~~~~~...     ..]]].                 ",
"            .!!...]]]]]]]]~~~~~~~~..   ..~~~..                  ",
"            .!!...]]]]]]]]~~~~~~~~..   ..~~~..                  ",
"            .)),,.]]]]]]]]]]~~~~~~]].. ..~~.                    ",
"            .)),,.]]]]]]]]]]~~~~~~]].. ..~~.                    ",
"             ..,,.]]]]]]]]]]]]~~~~~~.....]].                    ",
"             ..,,.]]]]]]]]]]]]]]]~~~]]...]]~..                  ",
"             ..,,.]]]]]]]]]]]]]]]~~~]]...]]~..                  ",
"             ..,,.]]~~]]]]]]]]]]]]~~~~.  ..~..                  ",
"             ..,,.]]~~]]]]]]]]]]]]~~~~.  ..~..                  ",
"             ..,,.]]===]]]]]]]]]]]]]~~~....]..                  ",
"             ..!!...=====.~~~~]]]]]]]]]]]]]]..                  ",
"             ..!!...=====.~~~~]]]]]]]]]]]]]]..                  ",
"             ..)),....===...===..]]]]]]]]]].                    ",
"             ..)),....===...===..]]]]]]]]]].                    ",
"               ..,....~==#..~~=##...]]]....                     ",
"               ..,..  .@@@....@@@.  ...                         ",
"               ..,..  .@@@....@@@.  ...                         ",
"               ..).....@@@....@@@.                              ",
"               ..)))))...@@@...@@@..                            ",
"               ..)))))...@@@...@@@..                            ",
"             ..)))))!!...#@@...##@..                            ",
"             ..)))))!!...#@@...##@..                            ",
"             ..!!!!!..   .@@.. ..@..                            ",
"               .....      ..     .                              ",
"               .....      ..     .                              "};
