/* XPM */
static char * fire_xpm[] = {
"64 64 8 1",
" 	c None",
".	c #E32D09",
"+	c #FF683B",
"@	c #FF6536",
"#	c #FF7B08",
"$	c #FFFF5C",
"%	c #FFEF14",
"&	c #FFBA52",
"                                                                ",
"                                                                ",
"                                                                ",
"                                                                ",
"                                                                ",
"                                                                ",
"                      .                                         ",
"                                                                ",
"                                                                ",
"                       .                                        ",
"                       ...                                      ",
"                       ...                                      ",
"                        ...                                     ",
"                        ..+..                                   ",
"                        ..@@...                                 ",
"                        ..#$##.                                 ",
"                        ...$$#....                              ",
"                        ...#%%#....                             ",
"                        ...#%%#....                             ",
"                          .##$###...       .                    ",
"                          ..#%%###..                            ",
"                        ....#%%&&#.       ..                    ",
"                       .....&%%##..       ..                    ",
"                      ....###%%##..       ..                    ",
"                      ..###%%%%##..      .....                  ",
"                      ..###%%%%##..      .....                  ",
"                       .###%%%%##..      .@...                  ",
"                     ...###%%##....   ....#@..    .             ",
"                     .....#%###...  .....##@..                  ",
"              .      ..####%###......######...  ..              ",
"                .    ..#&&%%###......#%%$##.  ....              ",
"               ...   ..#&&%%%####....#$$$#.......               ",
"               ...   ..#&&%%%####....#$$$#.......               ",
"               .@.  ...&&&%%%%###....#%%##......                ",
"               .@......###%%%%#####.#%###......                 ",
"               .@@@@....####%%%$$%#.#%##...@...                 ",
"               ...@@.......##%%%%$&##%##...@...                 ",
"                 @@@###...####%%%%&&#%#####@...                 ",
"                 @..##########%%%%&&#%####@@...                 ",
"                 @..##########%%%%&&#%####@@...                 ",
"             . . ...##$#######%%%%&&%%@@@###...                 ",
"               .. ...#$$%%%###%%%%&&%%@@@#....  .               ",
"                ......#$$$%%##%%%%%%%@@@##.......               ",
"                 ...####$$$%%##%%%%%%$###......                 ",
"                  ...#####%%%%%%%%%%$$###..                     ",
"                    ....####%%%%%%%%#####..                     ",
"                    ....####%%%%%%%%#####..                     ",
"                      ....##%%%%%%%%####...                     ",
"                       ...###%%%%%%%##...                       ",
"                        ....##%%%%%%#....                       ",
"                          ..###%%%%##.                          ",
"                           ..####%##..                          ",
"                                                                ",
"                                                                ",
"                                                                ",
"                                                                ",
"                                                                ",
"                                                                ",
"                                                                ",
"                                                                ",
"                                                                ",
"                                                                ",
"                                                                ",
"                                                                "};
