/* XPM */
static char * heart_xpm[] = {
"64 64 6 1",
" 	c None",
".	c #000000",
"+	c #000000",
"@	c #ED1C24",
"#	c #FFAEC9",
"$	c #FFFFFF",
"                                                                ",
"                                                                ",
"                                                                ",
"                                                                ",
"                                                                ",
"                                                                ",
"                                                                ",
"                                                                ",
"                                                                ",
"                                                                ",
"                                                                ",
"                                                                ",
"                                                                ",
"                    .......          .......                    ",
"                    .......          .......                    ",
"                    .......          .......                    ",
"                ....@@@@@@@...    ...@@@@@@@....                ",
"                ....@@@@@@@...    ...@@@@@@@....                ",
"                ....@@@@@@@...    ...@@@@@@@....                ",
"                ....@@@@@@@...    ...@@@@@@@....                ",
"             ...@@@@#######@@@....@@@@@@@@@@@@@@...             ",
"             ...@@@@#######@@@....@@@@@@@@@@@@@@...             ",
"             ...@@@@#######@@@....@@@@@@@@@@@@@@...             ",
"             ...@@@@#######@@@@@@@@@@@@@@@@@@@@@...             ",
"             ...@@@@#######@@@@@@@@@@@@@@@@@@@@@...             ",
"             ...@@@@#######@@@@@@@@@@@@@@@@@@@@@...             ",
"             ...@@@@#######@@@@@@@@@@@@@@@@@@@@@...             ",
"             ...@@@@@@@@@@@@@@@@@@@@@@@@@@@@@@@@...             ",
"             ...@@@@@@@@@@@@@@@@@@@@@@@@@@@@@@@@...             ",
"             ...@@@@@@@@@@@@@@@@@@@@@@@@@@@@@@@@...             ",
"             ...@@@@@@@@@@@@@@@@@@@@@@@@@@@@@@@@...             ",
"             ...@@@@@@@@@@@@@@@@@@@@@@@@@@@@@@@@...             ",
"             ...@@@@@@@@@@@@@@@@@@@@@@@@@@@@@@@@...             ",
"             ...@@@@@@@@@@@@@@@@@@@@@@@@@@@@@@@@...             ",
"                ....@@@@@@@@@@@@@@@@@@@@@@@@....                ",
"                ....@@@@@@@@@@@@@@@@@@@@@@@@....                ",
"                ....@@@@@@@@@@@@@@@@@@@@@@@@....                ",
"                    ...@@@@@@@@@@@@@@@@@@...                    ",
"                    ...@@@@@@@@@@@@@@@@@@...                    ",
"                    ...@@@@@@@@@@@@@@@@@@...                    ",
"                    ...@@@@@@@@@@@@@@@@@@...                    ",
"                       ....@@@@@@@@@@....                       ",
"                       ....@@@@@@@@@@....                       ",
"                       ....@@@@@@@@@@....                       ",
"                           ...@@@@...                           ",
"                           ...@@@@...                           ",
"                           ...@@@@...                           ",
"                           ...@@@@...                           ",
"                              ....                              ",
"                              ....                              ",
"                              ....                              ",
"                                                                ",
"                                                                ",
"                                                                ",
"                                                                ",
"                                                                ",
"                                                                ",
"                                                                ",
"                                                                ",
"                                                                ",
"                                                                ",
"                                                                ",
"                                                                ",
"                                                                "};
