/* XPM */
static char * king_1_xpm[] = {
"64 64 27 1",
" 	c None",
".	c #000000",
"+	c #FFE51B",
"@	c #FFA200",
"#	c #FFFFFF",
"$	c #2D8FCC",
"%	c #27CF30",
"&	c #662D01",
"*	c #D12600",
"=	c #FF2F00",
"-	c #944F00",
";	c #454545",
">	c #4F1701",
",	c #00FFFF",
"'	c #1979E1",
")	c #38B3FF",
"!	c #45C4FF",
"~	c #91F1FF",
"{	c #B00000",
"]	c #041E75",
"^	c #0040AE",
"/	c #7D3E01",
"(	c #211617",
"_	c #021552",
":	c #57001B",
"<	c #970030",
"[	c #787878",
"                           ... ... ..                           ",
"                         ..+@@.@##.++.                          ",
"                         ..+@@.@##.++.                          ",
"                         ..++++###+++.                          ",
"                         ..$++%#$$+%%.                          ",
"                         ..$++%#$$+%%.                          ",
"                      .. ..@+++###+@@.                          ",
"                     .&&...*=======**.                          ",
"                     .&&...*=======**.                          ",
"                    .-##&..==========.                          ",
"                  ..-&##&==.;;;...;..=.                         ",
"                  ..->&&#===..;;,,;;;=.                         ",
"                  ..->&&#===..;;,,;;;=.                         ",
"                 .--&.'')))=....,,...*=..                       ",
"                 .&&..)))''*)),=))=))*===.                      ",
"                 .&&..)))''*)),=))=))*===.                      ",
"                 ...'))))))***==**===*!##~..                    ",
"               ..#''))''...{**={{{{==*!#####.                   ",
"              .##'''''..&##~{{=****=={'#####.                   ",
"              .##'''''..&##~{{=****=={'#####.                   ",
"              .##~'''#..>##~{{{****{{]^~~###~..                 ",
"              .~~####~..>~~#{{{{{{{{{^^~~####..                 ",
"              .~~####~..>~~#{{{{{{{{{^^~~####..                 ",
"              .~~~~~~~!!.~~#~~]{{{{^^^'~~~##~..                 ",
"              .!!~~~~~!!.>>#~~]]]]@^^^'~~~~~~..                 ",
"              .!!~~~~~!!.>>#~~]]]]@^^^'~~~~~~..                 ",
"               ..~~~~~...>>#~~]]^^+^^^'!!~~~~..                 ",
"                 ........>>###~]^^^++^.!!!~~~!!.                ",
"                      ..]..~##~]^^^++^.!!~~~~!!.                ",
"                      ..]..~##~]^^^++^.!!~~~~!!.                ",
"                      ..]../##&~]]^@@].#####!..                 ",
"                      ..]..-##~~]]]@@.####~~!..                 ",
"                      ..]..-##~~]]]@@.####~~!..                 ",
"                        ...-###~......###~~~.                   ",
"                        .&&-~~#~..''')~~~~~~.                   ",
"                        .&&-~~#~..''')~~~~~~.                   ",
"                        .&&---#....)))'~~~..                    ",
"                        .//---#.)))''''''.                      ",
"                        .//---#~..'''''..]..                    ",
"                        .//---#~..'''''..]..                    ",
"                      ..>-----~#&&...'...]]].                   ",
"                      ..&------#&&#.../&&.]]]..                 ",
"                      ..&------#&&#.../&&.]]]..                 ",
"                      ..&--&&&-#~~#--&&//.]]]..                 ",
"                      ..&--&---###&##-&//.]]]]].                ",
"                      ..&--&---###&##-&//.]]]]].                ",
"                      ..&--/&&-~##(##-&--&..]]].                ",
"                      ..&---&&-(##(~~-&---..]]].                ",
"                      ..&---&&-(~~~~~#&---..]..                 ",
"                      ..&---&&-(~~~~~#&---..]..                 ",
"                      ..&&&-&&-(~~#((#/&&-..]..                 ",
"                      ..&&&/&&-&((#((-----..]..                 ",
"                      ..&&&/&&-&((#((-----..]..                 ",
"                      ..>&&---------->-//&...                   ",
"                        .&&------->>>>-//.__.                   ",
"                        .&&&//---->>>>-&&...                    ",
"                        .&&&//---->>>>-&&...                    ",
"                        ...&&&&/--->>>&.._..                    ",
"                        .::...>&&&&>>&.:::..                    ",
"                        .::...>&&&&>>&.:::..                    ",
"                        .<<:......;;;..::<..                    ",
"                        .<<.      .[[. ..<..                    ",
"                        .<<.      .[[. ..<..                    ",
"                        ...        ..    ...                    "};
