/* XPM */
static char * pawn_1_xpm[] = {
"64 64 12 1",
" 	c None",
".	c #000000",
"+	c #FF384F",
"@	c #FFFFFF",
"#	c #FF9DB0",
"$	c #00FFAE",
"%	c #E11E19",
"&	c #752204",
"*	c #F02932",
"=	c #FF007F",
"-	c #AE1700",
";	c #C81B0D",
"                                                                ",
"                                                                ",
"                                                                ",
"                                                                ",
"                                                                ",
"                        .............                           ",
"                        .............                           ",
"                      ..+++@@@@@@@+++..                         ",
"                      ..+++@@@@@@@+++..                         ",
"                      ..+++@@@@@@@+++..                         ",
"                   ...##@@@@@@@@@@@@@##...                      ",
"                   ...##@@@@@@@@@@@@@##...                      ",
"                   ...@@@@@@@@@@@@@@@@@...                      ",
"                   ...@@@@@@@@@@@@@@@@@...                      ",
"                   ...@@@@@@@@@@@@@@@@@...                      ",
"                   .....$$$@@@@@@@$$$.....                      ",
"                   .....$$$@@@@@@@$$$.....                      ",
"                   ...%%...#######...%%...                      ",
"                   ...%%...#######...%%...                      ",
"                   ...%%...#######...%%...                      ",
"                      ..@@@@@@@@@@@@@..                         ",
"                      ..@@@@@@@@@@@@@..                         ",
"                      ..+++..###..+++..                         ",
"                      ..+++..###..+++..                         ",
"                      ..+++..###..+++..                         ",
"                   ...%%...&&...&&...%%...                      ",
"                   ...%%...&&...&&...%%...                      ",
"                   ...++%%%%%%%%%%%%%++...                      ",
"                   ...++%%%%%%%%%%%%%++...                      ",
"                   ...++%%%%%%%%%%%%%++...                      ",
"                   ...**+++=======+++**...                      ",
"                   ...**+++=======+++**...                      ",
"                      ..%%%%%%%%%%%%%..                         ",
"                      ..%%%%%%%%%%%%%..                         ",
"                      ..%%%%%%%%%%%%%..                         ",
"                        ...&&&&&&&...                           ",
"                        ...&&&&&&&...                           ",
"                      ..%%%-------%%%..                         ",
"                      ..%%%-------%%%..                         ",
"                      ..%%%-------%%%..                         ",
"                   ...++%%%%%%%%%%%%%++...                      ",
"                   ...++%%%%%%%%%%%%%++...                      ",
"                   ...**=============**...                      ",
"                   ...**=============**...                      ",
"                   ...**=============**...                      ",
"                 ..---%%%%%%%%%%%%%%%%%---..                    ",
"                 ..---%%%%%%%%%%%%%%%%%---..                    ",
"                 ..%%%--%%%%%%%%%%%%%--%%%..                    ",
"                 ..%%%--%%%%%%%%%%%%%--%%%..                    ",
"                 ..%%%--%%%%%%%%%%%%%--%%%..                    ",
"                 ..%%%;;-------------;;%%%..                    ",
"                 ..%%%;;-------------;;%%%..                    ",
"                 ..---%%+++=======+++%%---..                    ",
"                 ..---%%+++=======+++%%---..                    ",
"                 ..---%%+++=======+++%%---..                    ",
"                 ..-----------------------..                    ",
"                 ..-----------------------..                    ",
"                   ...&&-------------&&...                      ",
"                   ...&&-------------&&...                      ",
"                   ...&&-------------&&...                      ",
"                      .................                         ",
"                      .................                         ",
"                                                                ",
"                                                                "};
