/* XPM */
static char * pawn_4_xpm[] = {
"64 64 10 1",
" 	c None",
".	c #000000",
"+	c #FF9DB0",
"@	c #FFFFFF",
"#	c #00FFAE",
"$	c #E11E19",
"%	c #AE1700",
"&	c #752204",
"*	c #FF384F",
"=	c #FF007F",
"                                                                ",
"                                                                ",
"                                ............                    ",
"                                ............                    ",
"                              ..++@@@@@@@@++...                 ",
"                              ..++@@@@@@@@++...                 ",
"                              ..++@@@@@@@@++...                 ",
"                           ...##@@@@@@@@@@@@@@@..               ",
"                           ...##@@@@@@@@@@@@@@@..               ",
"                           .....@@@@@++###..+++..               ",
"                           .....@@@@@++###..+++..               ",
"                           .....@@@@@++###..+++..               ",
"                         ..+++++@@@@@@@.....$$$..               ",
"                         ..+++++@@@@@@@.....$$$..               ",
"                         ..$$$..++@@@@@+++++$$$..               ",
"                         ..$$$..++@@@@@+++++$$$..               ",
"                         ..$$$..++@@@@@+++++$$$..               ",
"                           .....$$...$$........                 ",
"                           .....$$...$$........                 ",
"                         ..%%%..............                    ",
"                         ..%%%..............                    ",
"                         ..%%%..............                    ",
"                      ...$$$$$&&&&&&&&&&&&$$...                 ",
"                      ...$$$$$&&&&&&&&&&&&$$...                 ",
"                      ...$$***==$$%%%%%%%%$$%%%..               ",
"                      ...$$***==$$%%%%%%%%$$%%%..               ",
"                      ...$$***==$$%%%%%%%%$$%%%..               ",
"                         ..$$$====*****$$$$$...                 ",
"                         ..$$$====*****$$$$$...                 ",
"                         ..%%%$$$$$$$$$$$$%%...                 ",
"                         ..%%%$$$$$$$$$$$$%%...                 ",
"                         ..%%%$$$$$$$$$$$$%%...                 ",
"                         .....&&&&&&&%%%%%..                    ",
"                         .....&&&&&&&%%%%%..                    ",
"                      ...%%$$$%%%%%%%.....                      ",
"                      ...%%$$$%%%%%%%.....                      ",
"                      ...%%$$$%%%%%%%.....                      ",
"                    ..$$$==***$$$$%%%..                         ",
"                    ..$$$==***$$$$%%%..                         ",
"                 ...%%$$$$$=======***%%...                      ",
"                 ...%%$$$$$=======***%%...                      ",
"                 ...%%$$$$$=======***%%...                      ",
"               ..$$$%%%%%$$$$$$$$$$$$$$...                      ",
"               ..$$$%%%%%$$$$$$$$$$$$$$...                      ",
"               ..$$$**%%%%%%%%$$$$$$$%%...                      ",
"               ..$$$**%%%%%%%%$$$$$$$%%...                      ",
"               ..$$$**%%%%%%%%$$$$$$$%%...                      ",
"               ..%%%=====$$%%%%%%%%%%$$%%%..                    ",
"               ..%%%=====$$%%%%%%%%%%$$%%%..                    ",
"                 ...%%***=====****$$$$$...                      ",
"                 ...%%***=====****$$$$$...                      ",
"                 ...%%***=====****$$$$$...                      ",
"                    .....%%$$$$$$$%%%..                         ",
"                    .....%%$$$$$$$%%%..                         ",
"                         ............                           ",
"                         ............                           ",
"                         ............                           ",
"                                                                ",
"                                                                ",
"                                                                ",
"                                                                ",
"                                                                ",
"                                                                ",
"                                                                "};
