/* XPM */
static char * pawn_2_xpm[] = {
"64 64 13 1",
" 	c None",
".	c #000000",
"+	c #FF384F",
"@	c #FFFFFF",
"#	c #FF9DB0",
"$	c #52FFC8",
"%	c #00FFAE",
"&	c #E11E19",
"*	c #752204",
"=	c #F02932",
"-	c #FF007F",
";	c #C81B0D",
">	c #AE1700",
"                                                                ",
"                                                                ",
"                                                                ",
"                                                                ",
"                                                                ",
"                                                                ",
"                                                                ",
"                        .............                           ",
"                        .............                           ",
"                        .............                           ",
"                      ..+++@@@@@@@+++..                         ",
"                      ..+++@@@@@@@+++..                         ",
"                   ...##@@@@@@@@@@@@@##...                      ",
"                   ...##@@@@@@@@@@@@@##...                      ",
"                   ...##@@@@@@@@@@@@@##...                      ",
"                   ...##@@@@@@@@@@$$$.....                      ",
"                   ...##@@@@@@@@@@$$$.....                      ",
"                   .....%%%@@@@@@@%%%.....                      ",
"                   .....%%%@@@@@@@%%%.....                      ",
"                   .....%%%@@@@@@@%%%.....                      ",
"                   ...&&...#######...&&...                      ",
"                   ...&&...#######...&&...                      ",
"                      ..###@@@@@@@###..                         ",
"                      ..###@@@@@@@###..                         ",
"                      ..###@@@@@@@###..                         ",
"                      ..+++..###..+++..                         ",
"                      ..+++..###..+++..                         ",
"                   ...&&...**...**...&&...                      ",
"                   ...&&...**...**...&&...                      ",
"                   ...&&...**...**...&&...                      ",
"                   ...++&&&&&&&&&&&&&++...                      ",
"                   ...++&&&&&&&&&&&&&++...                      ",
"                   ...==+++-------+++==...                      ",
"                   ...==+++-------+++==...                      ",
"                   ...==+++-------+++==...                      ",
"                      ..&&&&&&&&&&&&&..                         ",
"                      ..&&&&&&&&&&&&&..                         ",
"                      .....*******.....                         ",
"                      .....*******.....                         ",
"                      .....*******.....                         ",
"                   ...;;&&&>>>>>>>&&&;;...                      ",
"                   ...;;&&&>>>>>>>&&&;;...                      ",
"                   ...==+++-------+++==...                      ",
"                   ...==+++-------+++==...                      ",
"                   ...==+++-------+++==...                      ",
"                 ..>>>&&&&&&&&&&&&&&&&&>>>..                    ",
"                 ..>>>&&&&&&&&&&&&&&&&&>>>..                    ",
"                 ..;;;>>&&&&&&&&&&&&&>>;;;..                    ",
"                 ..;;;>>&&&&&&&&&&&&&>>;;;..                    ",
"                 ..;;;>>&&&&&&&&&&&&&>>;;;..                    ",
"                 ..;;;;;>>>>>>>>>>>>>;;;;;..                    ",
"                 ..;;;;;>>>>>>>>>>>>>;;;;;..                    ",
"                 ..>>>&&+++++---+++++&&>>>..                    ",
"                 ..>>>&&+++++---+++++&&>>>..                    ",
"                 ..>>>&&+++++---+++++&&>>>..                    ",
"                 ..>>>>>>>>>>>>>>>>>>>>>>>..                    ",
"                 ..>>>>>>>>>>>>>>>>>>>>>>>..                    ",
"                   ...**>>>>>>>>>>>>>**...                      ",
"                   ...**>>>>>>>>>>>>>**...                      ",
"                   ...**>>>>>>>>>>>>>**...                      ",
"                      .................                         ",
"                      .................                         ",
"                                                                ",
"                                                                "};
