/* XPM */
static char * pink_brick_xpm[] = {
"64 64 63 1",
" 	c #5F165F",
".	c #661866",
"+	c #611660",
"@	c #541354",
"#	c #701A6F",
"$	c #721A72",
"%	c #711A70",
"&	c #6A186A",
"*	c #651764",
"=	c #6C196B",
"-	c #6D196C",
";	c #6E196E",
">	c #671867",
",	c #7C1D7B",
"'	c #631763",
")	c #5A1559",
"!	c #5B155B",
"~	c #741B73",
"{	c #511351",
"]	c #561455",
"^	c #481148",
"/	c #4D124D",
"(	c #441043",
"_	c #791C79",
":	c #751B75",
"<	c #691868",
"[	c #581458",
"}	c #531352",
"|	c #621761",
"1	c #4C124C",
"2	c #4F124E",
"3	c #491149",
"4	c #451045",
"5	c #571457",
"6	c #5E165D",
"7	c #420F42",
"8	c #471046",
"9	c #4B114A",
"0	c #5C155C",
"a	c #501250",
"b	c #7D1D7D",
"c	c #7F1D7E",
"d	c #7B1C7A",
"e	c #761B76",
"f	c #861F85",
"g	c #871F86",
"h	c #831E82",
"i	c #781C77",
"j	c #811E81",
"k	c #841F84",
"l	c #801E7F",
"m	c #881F88",
"n	c #8A2089",
"o	c #8B208A",
"p	c #8C208C",
"q	c #932293",
"r	c #962395",
"s	c #8E218D",
"t	c #972397",
"u	c #922291",
"v	c #992398",
"w	c #912190",
"x	c #8F218F",
"   .+@@@#$$%&***=$$$%--;-&&>>&&-%%%=*++>%,,.>&&--;;-=##='**)!~~#",
"{]]{^//('&&_%--=$%%;>%%$:##=<##:<&&&*+++>;;~~:::~%%;-%%<[]]}]**|",
"{]]{^//('&&_%--=$%%;>%%$:##=<##:<&&&*+++>;;~~:::~%%;-%%<[]]}]**|",
"}]]1(22}344^1{{5!!!)[)))!**6@@@748831991399!5]]50++6!00+6[[aa55+",
"{55{9}}@9^^2a@@55@@a/555}[[a/)){/22{@]]@@}}6)55[066!][[ '++[{22}",
";bbcdccbeeeffggghbbi~--=*''])eedcjjkfgggfffklbbbcbbi%}}6=::_,cck",
";bbcdccbeeeffggghbbi~--=*''])eedcjjkfgggfffklbbbcbbi%}}6=::_,cck",
"<bbklffh,bbfgggghbbe$&&=*0031;;_jkkgmnnnmmmgkllll,,$&00|=~~dckkm",
");;ieddd:eehhffgfjjbd::de;;]a--:d,,cjjjljllfhhhhjdd#.  '&%%~$--=",
"6--~~bbl,bbdchhggffjl::,,::[966 _ddblllclcc,d,,b,::< 556-ddjd==|",
"6--~~bbl,bbdchhggffjl::,,::[966 _ddblllclcc,d,,b,::< 556-ddjd==|",
"@0006--:$%%;~iidd__e~##ee%%58@@a_ddbljjjlcc::eedd~~>0]]!<ee,%66/",
")  !0##diee;%::ee~~#-;;$%;;5^@@2>===;###;--==;;::##|[[[0';;~=002",
"*{{22}}48//2.00.|!!|<  6)55@}}}})55[!  !a888388(900|![[6)  |288}",
"*{{22}}48//2.00.|!!|<  6)55@}}}})55[!  !a888388(900|![[6)  |288}",
"+55))[[8^2290aa[[@@]!}}@[00  660@@@@{//3^887(///4{{0a@@@0++*+@@)",
";##cgoolhgg,,++0!!!! ))+=eeblccbnppoh__:_cc3/<<:&::h~55[dhhkj661",
";%%jnqqomhhhb||6 66a/00|-eelkgggppppfcc__dd9{..:~::$.00)koopr--}",
";%%jnqqomhhhb||6 66a/00|-eelkgggppppfcc__dd9{..:~::$.00)koopr--}",
"...$_ggfjiie,ddfsff|@..<-$$ichhffkkhkkkce;;7(44}.++14^^8:jjmt~~!",
"<==~~llfoff:dlloumm02bb,,bblkmmojlllfnnfd%%12((/&''39//{ekkop--0",
"&%%:'66+#::,,ddie$$13::e_dd,,,,,:::idbb,_ee~&55[*55(8ee:d,,,~..&",
"&%%:'66+#::,,ddie$$13::e_dd,,,,,:::idbb,_ee~&55[*55(8ee:d,,,~..&",
"<iib*55)emm##$$;-&&8^..&%::e~##=<--##==-~ddb=6600{{12$$i~__d.00<",
"!]]=6//[@]]18((8122983339//{[++.!++<'  @555@]]]]}aa/944(7aa]5  @",
")000]66.)!!a133312222^^^1{{) +++5550[!!][55]]555]}}a/{{19@@//002",
")000]66.)!!a133312222^^^1{{) +++5550[!!][55]]555]}}a/{{19@@//002",
"'--{{::d%##ie~~#;%%icffciee:-  }***=&$$%:~~fgggmgffhjmm_e~~5}>>5",
"*;;83;;ikllcc,,:#~~cnrroc,,,~'']5  #~ddibbbjhkkffkkhjvvkj__}2==!",
"[  7722!kllhhll_~iiksnnb%;;~:--'({{=~__~_ddbljjkkkkhjll;;--/}~~<",
"[  7722!kllhhll_~iiksnnb%;;~:--'({{=~__~_ddbljjkkkkhjll;;--/}~~<",
"]00{@((2fhhcb__:~eeckwwf_~~::%%=(aa>$,,_bbb_,ccjhhhjjcc#===50ii#",
"!<<#;}}5fffde~~~e____ddi:~~~~$$%^882[;;~i$$#%::i_ddd_ll$.**[[>>6",
"5==bd66!ddd$-&&-~::$-;;$e__i:$$%a7774**$:&&#%::_d,,,,dd% ++0!**!",
"5==bd66!ddd$-&&-~::$-;;$e__i:$$%a7774**$:&&#%::_d,,,,dd% ++0!**!",
"511|6||6}{{600006   6660)]]2^((7((((((((3//}[**'*0066006)@@50[[{",
"{aa]200 +**06  6)[[[)555555@a229a2213331a}}5{}}}666+0!!0)]]5!}}1",
"=ll,~mmmnff) **|)@@5!__dcllhhjjlfll_:$$~eii$'!!!%__billkhllcc::>",
"=ll,~mmmnff) **|)@@5!__dcllhhjjlfll_:$$~eii$'!!!%__billkhllcc::>",
"'kk,:wwwqoo@+&&&+!!+>llhfnnpppppokkd:$$%#--%*  |illgjkknnggkj::.",
"5~~&*ffsvtt{ ;;$-==%_lljkffggffkk,,$;--<+))66>>=_ddjjcchkllc,## ",
"'ee_:pppsmm{ ;;iiii,lggmnooomggfnhhbbbbe>))[*__bhbbkgffnmkkhkdd;",
"'ee_:pppsmm{ ;;iiii,lggmnooomggfnhhbbbbe>))[*__bhbbkgffnmkkhkdd;",
"|&&_ebb%6@@] ==e,,,dd%%$:eee:~~$~###~ee-544@|eed,::dbeei:%%%:##.",
"%<<,:::&5{{[ &&~ddd:%==;%~~::::~-==-:__;@((]+$$:i%%eiiii~;;%i::;",
"2))|)}}a{{{1966'}660 [[)!00!)[[5!}}3488^4((}+!!{!66[!!!>'{{1[))a",
"2))|)}}a{{{1966'}660 [[)!00!)[[5!}}3488^4((}+!!{!66[!!!>'{{1[))a",
"1]]6]9944((21!! 2))5!55[!0060!!)@{{/^444^99{ 005 ++[)aa0 [[!.**5",
"0##hfffmonn,:__~ '')0++*=~~,jkkfhffkbee:,hhikjj__~~>+]]!!))'%--+",
"0$$gooooogge#%%&0||5!||>#__hnxxwgggh,ee:_bblnookcii&6..'![['$%%>",
"0$$gooooogge#%%&0||5!||>#__hnxxwgggh,ee:_bblnookcii&6..'![['$%%>",
">__nnkkl,eecd__~-%%+.--#$ee_ddd_kbb~;---=<<=:bb,___$.**+0  -e$$&",
"'::fgkkkkjjb,__~###]5ii_d,,,diiemcc~%~~:$;;%:ccc_,,d-aa]+##,,##>",
"|%%bbii_,,,=###%~$$}}%%$:eee:~~$+00[5[[0 ++e:ddi-%%$'^^}.__ci<<+",
"|%%bbii_,,,=###%~$$}}%%$:eee:~~$+00[5[[0 ++e:ddi-%%$'^^}.__ci<<+",
")>>$%--%eii~iee~:--44____ee~;&&>[!!6600|=::$#::$<%%i&{{!=__i=++0",
"5))[0]][.]]' ))}1884444((44a555]<~~ofdd$0'')![[5}//3^@@^0<<+.**]",
"]0006{{a6aa{{aa/38884//91}}0|''+&##ci--*@[[55]]@a11^4]]26||2{!!}",
"]0006{{a6aa{{aa/38884//91}}0|''+&##ci--*@[[55]]@a11^4]]26||2{!!}",
"|##~#!!@'))dchhgmgghhkkb~%%;&''0]@@6!55[@[[kkkkhl,,ieddcquu-0++5",
"+$$i%@@90!!,lmmswxxomuunlii$=++)0@@@2889{}}hkkkkjccd___lokk5455]",
"#jjmb665#$$:_cckfjjb_$$#;%%id__ec::#&00|:ee,bcccbddie&&$,dd5/;;;",
"#jjmb665#$$:_cckfjjb_$$#;%%id__ec::#&00|:ee,bcccbddie&&$,dd5/;;;",
"-,,b$[[[i,,cjkkffhhcb,,_ibbfnnngd~~%-)) cjjbclljjccb,==#$ee0]::%"};
