/* XPM */
static char * queen_1_xpm[] = {
"64 64 23 1",
" 	c None",
".	c #000000",
"+	c #BD003C",
"@	c #970030",
"#	c #57001B",
"$	c #D12600",
"%	c #FF2F00",
"&	c #426113",
"*	c #638A28",
"=	c #38B3FF",
"-	c #9C9C9C",
";	c #F89313",
">	c #FFFFFF",
",	c #FFBB00",
"'	c #00FFFF",
")	c #E36002",
"!	c #FFE51B",
"~	c #1979E1",
"{	c #B00000",
"]	c #0040AE",
"^	c #DE340D",
"/	c #303030",
"(	c #FF5100",
"                               .....                            ",
"                               .....                            ",
"                              .++++@...                         ",
"                              .@@##@##+..                       ",
"                              .@@##@##+..                       ",
"                         ......@@###+++..                       ",
"                         ......@@###+++..                       ",
"                       ..$%%%%%@@@@@@@.                         ",
"                     ..%%%%%%%%%%@@@&&*..                       ",
"                     ..%%%%%%%%%%@@@&&*..                       ",
"                    .$$%%%%%%%$%%%%%...                         ",
"                    .%%%%%$$===%%%%%$$.                 ---     ",
"                    .%%%%%$$===%%%%%$$.                 ---     ",
"            .........$$%%===...%%%%%%%.               --        ",
"            .........$$%%===...%%%%%%%.               --        ",
"          ..;>>>>,...$$$$'''''=$$%%%%%.               ---       ",
"          ..)>>))).. ..$$>>>''%%%%%$$$.                 -----   ",
"          ..)>>))).. ..$$>>>''%%%%%$$$.                 -----   ",
"          ..,>>!!,.. ..$$$''%%%%%$$$..                     ---  ",
"          ..,>>!!,.. ..$$$''%%%%%$$$..                     ---  ",
"          ..)>>)))..   ..~~~$$%$$$${..                        --",
"          ..;!!!!;.. ..]]~==$$$$$]].                         -  ",
"          ..;!!!!;.. ..]]~==$$$$$]].                         -  ",
"            .!!...   ..~~~~~$$$]]~~.          ..                ",
"            .!!...   ..~~~~~$$$]]~~.          ..                ",
"            .^^^^......~~~~~$${]]==~..     ...@@.............   ",
"            .^^^^@@@@==]]~~~$$]]]===..   ..@^^//////////>>>((.  ",
"            .^^^^@@@@==]]~~~$$]]]===..   ..@^^//////////>>>((.  ",
"             ..,,.@@@==]]]]]]]]]]===.....^^^^^@@.............   ",
"             ..,,.@@@==]]]]]]]]]]===.....^^^^^@@.............   ",
"             ..!!......@@@@@@@@..~~===@@@@@.....                ",
"             ..,,.   ..@@@@@@@@....=@@@@@..                     ",
"             ..,,.   ..@@@@@@@@....=@@@@@..                     ",
"             ..)),...##]]]]]]]]....~@@@..                       ",
"               ..,.. ..]]]~~~~~]]......     ....                ",
"               ..,.. ..]]]~~~~~]]......     ....                ",
"               ..,...]]]]]]]~~~~~~~...     .~~~~.               ",
"               ..,...]]]]]]]~~~~~~~...     .~~~~.               ",
"               ..!...]]]]]]]]]~~~~~~...     ..]]]..             ",
"               ..!...]]]]]]]]]~~~~~~~~.    .~~~~.               ",
"               ..!...]]]]]]]]]~~~~~~~~.    .~~~~.               ",
"               ..),,.]]]]]]]]]]~~~~~~~]..  .~~..                ",
"               ..),,.]]]]]]]]]]~~~~~~~]..  .~~..                ",
"                 .,,.]]]]]]]]]]]]~~~~~~.....]]..                ",
"                 .,,.]]]]]]]]]]]]]]]~~~]]...]]~~.               ",
"                 .,,.]]]]]]]]]]]]]]]~~~]]...]]~~.               ",
"                 .,,.]]~~]]]]]]]]]]]]]~~~.. ..~~.               ",
"                 .,,.]]~~]]]]]]]]]]]]]~~~.. ..~~.               ",
"                 .,,.]]===]]]]]]]]]]]]]~~~~...]].               ",
"                 .!!...=====..~~~]]]]]]]]]]]]]]].               ",
"                 .!!...=====..~~~]]]]]]]]]]]]]]].               ",
"                 .)),....===...====.]]]]]]]]]]..                ",
"                 .)),....===...====.]]]]]]]]]]..                ",
"                  ..,....~==##.~~==#...]]]]...                  ",
"                  ..,..  .@@@@...@@@.. ....                     ",
"                  ..,..  .@@@@...@@@.. ....                     ",
"                  ..).....@@@@...@@@..                          ",
"                  ..)))))...@@@....@@@.                         ",
"                  ..)))))...@@@....@@@.                         ",
"                 .)))))!!...##@....#@@.                         ",
"                 .)))))!!...##@....#@@.                         ",
"                 .!!!!!..   ..@..  .@@.                         ",
"                  .....       .     ..                          ",
"                  .....       .     ..                          "};
