/* XPM */
static char * rook_xpm[] = {
"64 64 11 1",
" 	c None",
".	c #000000",
"+	c #FF384F",
"@	c #FF007F",
"#	c #AE1700",
"$	c #E11E19",
"%	c #C81B0D",
"&	c #752204",
"*	c #FF9DB0",
"=	c #FFFFFF",
"-	c #00FFAE",
"                            ........                            ",
"                            ........                            ",
"                            ........                            ",
"                         ...++++++++...                         ",
"                         ...++++++++...                         ",
"                  .....  ...@@@@@@@@...  .....                  ",
"                  .....  ...@@@@@@@@...  .....                  ",
"                  .....  ...@@@@@@@@...  .....                  ",
"               ...+++++.....########.....+++++...               ",
"               ...+++++.....########.....+++++...               ",
"               ...+++++.....########.....+++++...               ",
"               ...+++++.....########.....+++++...               ",
"               ...+++++.....########.....+++++...               ",
"               ...@@@@@##################@@@@@...               ",
"               ...@@@@@##################@@@@@...               ",
"               ...$$$$$#####++++++++#####$$$$$...               ",
"               ...$$$$$#####++++++++#####$$$$$...               ",
"               ...$$$$$#####++++++++#####$$$$$...               ",
"               ...$$$$$#####@@@@@@@@#####$$$$$...               ",
"               ...$$$$$#####@@@@@@@@#####$$$$$...               ",
"               ...$$+++%%###$$$$$$$$###%%+++$$...               ",
"               ...$$+++%%###$$$$$$$$###%%+++$$...               ",
"               ...$$+++%%###$$$$$$$$###%%+++$$...               ",
"               ...$$$$$+++++$$$$$$$$+++++$$$$$...               ",
"               ...$$$$$+++++$$$$$$$$+++++$$$$$...               ",
"               ...$$$$$+++++$$$$$$$$+++++$$$$$...               ",
"               ...##$$$$$$$$$$$$$$$$$$$$$$$$##...               ",
"               ...##$$$$$$$$$$$$$$$$$$$$$$$$##...               ",
"                  .....##$$$$$$$$$$$$$$##.....                  ",
"                  .....##$$$$$$$$$$$$$$##.....                  ",
"                  .....##$$$$$$$$$$$$$$##.....                  ",
"                  ..&&&..................&&&..                  ",
"                  ..&&&..................&&&..                  ",
"                  ..&&&&&&&&&&&&&&&&&&&&&&&&..                  ",
"                  ..&&&&&&&&&&&&&&&&&&&&&&&&..                  ",
"                  ..&&&&&&&&&&&&&&&&&&&&&&&&..                  ",
"                  ..###..+++********+++..###..                  ",
"                  ..###..+++********+++..###..                  ",
"                  ..###.....========.....###..                  ",
"                  ..###.....========.....###..                  ",
"                  ..###.....========.....###..                  ",
"                  ..###..---========---..###..                  ",
"                  ..###..---========---..###..                  ",
"                  ..###..---========---..###..                  ",
"                  ..###..+++********+++..###..                  ",
"                  ..###..+++********+++..###..                  ",
"               ...#####.....+++..+++.....#####...               ",
"               ...#####.....+++..+++.....#####...               ",
"               ...#####.....+++..+++.....#####...               ",
"               ...$$#####..............#####$$...               ",
"               ...$$#####..............#####$$...               ",
"               ...$$%%%##################%%%$$...               ",
"               ...$$%%%##################%%%$$...               ",
"               ...$$%%%##################%%%$$...               ",
"               ...##$$$$$+++@@@@@@@@+++$$$$$##...               ",
"               ...##$$$$$+++@@@@@@@@+++$$$$$##...               ",
"               ...############################...               ",
"               ...############################...               ",
"               ...############################...               ",
"                  ..&&&##################&&&..                  ",
"                  ..&&&##################&&&..                  ",
"                    ........................                    ",
"                    ........................                    ",
"                    ........................                    "};
