/* XPM */
static char * skull_xpm[] = {
"64 64 6 1",
" 	c None",
".	c #000000",
"+	c #BEC1AE",
"@	c #B6BA9E",
"#	c #A0A196",
"$	c #898B82",
"                                                                ",
"                                                                ",
"                                                                ",
"                                                                ",
"                                                                ",
"                                                                ",
"                                                                ",
"                                                                ",
"                 ..................................             ",
"                 ..................................             ",
"                 ..................................             ",
"                 ..................................             ",
"             .......+++++++++++++++++@@@####$$$.......          ",
"             .......+++++++++++++++++@@@####$$$.......          ",
"             .......+++++++++++++++++@@@####$$$.......          ",
"          .......++++++++++++++++++++@@@@@@@###$$$$.......      ",
"          .......++++++++++++++++++++@@@@@@@###$$$$.......      ",
"          .......++++++++++++++++++++@@@@@@@###$$$$.......      ",
"      .......+++++++++++++++++@@@@@@@@@@@@@@@@@####$$$....      ",
"      .......+++++++++++++++++@@@@@@@@@@@@@@@@@####$$$....      ",
"      .......+++++++++++++++++@@@@@@@@@@@@@@@@@####$$$....      ",
"      .......+++++++++++++++++@@@@@@@@@@@@@@@@@####$$$....      ",
"      ....+++++++++++++++++@@@@@@@@@@@@@@@@@@@@####$$$....      ",
"      ....+++++++++++++++++@@@@@@@@@@@@@@@@@@@@####$$$....      ",
"      ....+++++++++++++++++@@@@@@@@@@@@@@@@@@@@####$$$....      ",
"      ..............+++@@@@@@@@@@@..........@@@@@@@$$$....      ",
"      ..............+++@@@@@@@@@@@..........@@@@@@@$$$....      ",
"      ..............+++@@@@@@@@@@@..........@@@@@@@$$$....      ",
"      ..............+++@@@@@@@@@@@..........@@@@@@@$$$....      ",
"      ..............@@@@@@@@@@@@@@..........@@@@@@@$$$....      ",
"      ..............@@@@@@@@@@@@@@..........@@@@@@@$$$....      ",
"      ..............@@@@@@@@@@@@@@..........@@@@@@@$$$....      ",
"      ..............+++.......@@@@..........@@@####$$$....      ",
"      ..............+++.......@@@@..........@@@####$$$....      ",
"      ..............+++.......@@@@..........@@@####$$$....      ",
"      ....+++++++++++++.......@@@@@@@@@@@@@@###$$$$$$$....      ",
"      ....+++++++++++++.......@@@@@@@@@@@@@@###$$$$$$$....      ",
"      ....+++++++++++++.......@@@@@@@@@@@@@@###$$$$$$$....      ",
"      ....+++++++++++++.......@@@@@@@@@@@@@@###$$$$$$$....      ",
"      ....+++++++++++++@@@@@@@@@@@@@@@@@####$$$...........      ",
"      ....+++++++++++++@@@@@@@@@@@@@@@@@####$$$...........      ",
"      ....+++++++++++++@@@@@@@@@@@@@@@@@####$$$...........      ",
"      .......+++++++++++++++++@@@@@@@@@@####..........          ",
"      .......+++++++++++++++++@@@@@@@@@@####..........          ",
"      .......+++++++++++++++++@@@@@@@@@@####..........          ",
"      .......+++++++++++++++++@@@@@@@@@@####..........          ",
"          ...+++++++...++++...@@@@...@@@####..........          ",
"          ...+++++++...++++...@@@@...@@@####..........          ",
"          ...+++++++...++++...@@@@...@@@####..........          ",
"          ...+++++++...++++...@@@@...#######.......             ",
"          ...+++++++...++++...@@@@...#######.......             ",
"          ...+++++++...++++...@@@@...#######.......             ",
"          .........................................             ",
"          .........................................             ",
"          .........................................             ",
"          .........................................             ",
"                                                                ",
"                                                                ",
"                                                                ",
"                                                                ",
"                                                                ",
"                                                                ",
"                                                                ",
"                                                                "};
