/* XPM */
static char * white_brick_xpm[] = {
"64 64 51 1",
" 	c #646464",
".	c #6A6A6A",
"+	c #656565",
"@	c #5B5B5B",
"#	c #727272",
"$	c #757575",
"%	c #747474",
"&	c #6E6E6E",
"*	c #686868",
"=	c #6F6F6F",
"-	c #707070",
";	c #717171",
">	c #6B6B6B",
",	c #7E7E7E",
"'	c #606060",
")	c #616161",
"!	c #767676",
"~	c #5A5A5A",
"{	c #5C5C5C",
"]	c #555555",
"^	c #585858",
"/	c #545454",
"(	c #7B7B7B",
"_	c #787878",
":	c #6C6C6C",
"<	c #5F5F5F",
"[	c #666666",
"}	c #595959",
"|	c #565656",
"1	c #5D5D5D",
"2	c #626262",
"3	c #535353",
"4	c #575757",
"5	c #7F7F7F",
"6	c #808080",
"7	c #7C7C7C",
"8	c #868686",
"9	c #878787",
"0	c #838383",
"a	c #797979",
"b	c #828282",
"c	c #858585",
"d	c #818181",
"e	c #888888",
"f	c #898989",
"g	c #8A8A8A",
"h	c #8B8B8B",
"i	c #919191",
"j	c #8D8D8D",
"k	c #8F8F8F",
"l	c #8E8E8E",
"   .+@@@#$$%&***=$$$%--;-&&>>&&-%%%=*++>%,,.>&&--;;-=##=***')!!#",
"~{{~]^^/*&&(%--=$%%;>%%$_##=:##_:&&&*+++>;;!!___!%%;-%%:<{{@{**[",
"~{{~]^^/*&&(%--=$%%;>%%$_##=:##_:&&&*+++>;;!!___!%%;-%%:<{{@{**[",
"@{{^/}}@|//]^~~1)))'<''')**2@@@3/]]|^44^|44)1{{1)++2)))+2<<~~11+",
"~11~4@@@4]]}~@@11@@~^111@<<~^''~^}}~@{{@@@@2'11<)22){<< *++<~}}@",
";5567665___88999055a!--=***{'__76bbc8999888cd555655a%@@2=__(,66c",
";5567665___88999055a!--=***{'__76bbc8999888cd555655a%@@2=__(,66c",
":55cd880,5589999055_$&&=*))|^;;(bcc9efffeee9cdddd,,$&))[=!!76cce",
"';;a_777___008898bb57__7_;;{~--_7,,6bbbdbdd80000b77#.  *&%%!$--=",
"2--!!55d,5576009988bd__,,__<422 (775ddd6d66,7,,5,__: 112-77b7==[",
"2--!!55d,5576009988bd__,,__<422 (775ddd6d66,7,,5,__: 112-77b7==[",
"@)))2--_$%%;!aa77((_!##__%%1]@@~(775dbbbd66____77!!>){{):__,%22^",
"'  ))##7a__;%____!!#-;;$%;;1]@@}>===;###;--==;;__##[<<<)*;;!=))}",
"*~~}}@@/]^^}.)).[))[:  2'11@@@@@'11<)  )~]]]|]]/4))[)<<2'  [}]]@",
"*~~}}@@/]^^}.)).[))[:  2'11@@@@@'11<)  )~]]]|]]/4))[)<<2'  [}]]@",
"+11''<<]]}}4)~~<<@@{)@@@<))  22)@@@@~^^|]]]3/^^^/~~)~@@@)++*+@@'",
";##69ggd099,,++))))) ''+=__5d665fhhg0((_(66|^::_&__0!11<700cb22^",
";%%bfiige0005[[2 22~^))[-__dc999hhhh866((774~.._!__$.))'cgghi--@",
";%%bfiige0005[[2 22~^))[-__dc999hhhh866((774~.._!__$.))'cgghi--@",
"...$(998baa_,778j88[@..:-$$a60088cc0ccc6_;;3///@.++^/]]]_bbei!!)",
":==!!dd8g88_7ddgiee)}55,,55dceegbddd8ff87%%^}//^&**|4^^~_ccgh--)",
"&%%_*22+#__,,77a_$$^|___(77,,,,,___a755,(__!&11<*11/]___7,,,!..&",
"&%%_*22+#__,,77a_$$^|___(77,,,,,___a755,(__!&11<*11/]___7,,,!..&",
":aa5*11'_ee##$$;-&&]]..&%___!##=:--##==-!775=22))~~^}$$a!((7.)):",
"){{=2^^<@{{^]//]^}}4]|||4^^~<++.)++:*  @111@{{{{@~~^4///3~~{1  @",
"'))){22.'))~^|||^}}}}]]]^~~' +++111)<)){<11{{111{@@~^~~^4@@^^))}",
"'))){22.'))~^|||^}}}}]]]^~~' +++111)<)){<11{{111{@@~^~~^4@@^^))}",
"*--~~__7%##a_!!#;%%a6886a___-  @***=&$$%_!!8999e9880bee(_!!1@>>1",
"*;;]|;;acdd66,,_#!!6fiig6,,,!**{1  #!77a555b0cc88cc0biicb((@}==)",
"<  33}})cdd00dd(!aacjff5%;;!_--*/~~=!((!(775dbbcccc0bdd;;--^@!!:",
"<  33}})cdd00dd(!aacjff5%;;!_--*/~~=!((!(775dbbcccc0bdd;;--^@!!:",
"{))~@//}80065((_!__6ckk8(!!__%%=/~~>$,,(555(,66b000bb66#===1)aa#",
")::#;@@18887_!!!_((((77a_!!!!$$%]]]}<;;!a$$#%__a(777(dd$.**<<>>2",
"1==5722)777$-&&-!__$-;;$_((a_$$%~333/**$_&&#%__(7,,,,77% ++))**)",
"1==5722)777$-&&-!__$-;;$_((a_$$%~333/**$_&&#%__(7,,,,77% ++))**)",
"1^^[2[[2@~~2))))2   222)'{{}]//3////////|^^@<****))22))2'@@1)<<~",
"~~~{})) +**)2  2'<<<'111111@~}}4~}}^|||^~@@1~@@@222+))))'{{1)@@^",
"=dd,!eeef88' **['@@1)((76dd00bbd8dd(_$$!_aa$*)))%((5addc0dd66__>",
"=dd,!eeef88' **['@@1)((76dd00bbd8dd(_$$!_aa$*)))%((5addc0dd66__>",
"*cc,_kkkigg@+&&&+))+>dd08ffhhhhhgcc7_$$%#--%*  [add9bccff99cb__.",
"1!!&*88jiii~ ;;$-==%(ddbc889988cc,,$;--:+''22>>=(77bb660cdd6,## ",
"*__(_hhhjee~ ;;aaaa,d99efggge998f005555_>''<*((5055c988fecc0c77;",
"*__(_hhhjee~ ;;aaaa,d99efggge998f005555_>''<*((5055c988fecc0c77;",
"[&&(_55%2@@{ ==_,,,77%%$_____!!$!###!__-1//@[__7,__75__a_%%%_##.",
"%::,___&1~~< &&!777_%==;%!!____!-==-_((;@//{+$$_a%%_aaaa!;;%a__;",
"}''['@@~~~~^422*@22) <<'))))'<<1)@@|/]]]///@+))~)22<)))>*~~^<''~",
"}''['@@~~~~^422*@22) <<'))))'<<1)@@|/]]]///@+))~)22<)))>*~~^<''~",
"^{{2{44////}^)) }''1)11<)))2)))'@~~^]///]44~ ))1 ++<'~~) <<).**1",
")##0888egff,_((! **')++*=!!,bcc8088c5___,00acbb((!!>+{{))''*%--+",
")$$9ggggg99_#%%&)[[1)[[>#((0fllk9990,___(55dfggc6aa&2..*)<<*$%%>",
")$$9ggggg99_#%%&)[[1)[[>#((0fllk9990,___(55dfggc6aa&2..*)<<*$%%>",
">((ffccd,__67((!-%%+.--#$__(777(c55!;---=::=_55,((($.**+)  -_$$&",
"*__89ccccbb5,((!###{1aa(7,,,7aa_e66!%!!_$;;%_666(,,7-~~{+##,,##>",
"[%%55aa(,,,=###%!$$@@%%$_____!!$+))<1<<) ++__77a-%%$*]]@.((6a::+",
"[%%55aa(,,,=###%!$$@@%%$_____!!$+))<1<<) ++__77a-%%$*]]@.((6a::+",
"'>>$%--%_aa!a__!_--//((((__!;&&><))22))[=__$#__$:%%a&~~)=((a=++)",
"1''<){{<.{{* ''@^]]////////~111{:!!g877$)**')<<1@^^|]@@])::+.**{",
"{)))2~~~2~~~~~~^|]]]/^^4^@@)[**+&##6a--*@<<11{{@~^^]/{{}2[[}~))@",
"{)))2~~~2~~~~~~^|]]]/^^4^@@)[**+&##6a--*@<<11{{@~^^]/{{}2[[}~))@",
"[##!#))@*''76009e9900cc5!%%;&**){@@2)11<@<<cccc0d,,a_776iii-)++1",
"+$$a%@@4))),deejkllgeiifdaa$=++')@@@}]]4~@@0ccccb667(((dgcc1/11{",
"#bbe5221#$$_(66c8bb5($$#;%%a7((_6__#&))[___,5666577a_&&$,771^;;;",
"#bbe5221#$$_(66c8bb5($$#;%%a7((_6__#&))[___,5666577a_&&$,771^;;;",
"-,,5$<<<a,,6bcc880065,,(a558fff97!!%-'' 6bb56ddbb665,==#$__){__%"};
